<svg width="18" height="17" viewBox="0 0 18 17" fill="none" xmlns="http://www.w3.org/2000/svg">
<path d="M9.00187 4.11213C6.62062 4.10463 4.68562 6.03213 4.67812 8.41338C4.67062 10.7946 6.59812 12.7296 8.97937 12.7371C11.3606 12.7446 13.2956 10.8171 13.3031 8.43588C13.3106 6.05463 11.3831 4.11963 9.00187 4.11213ZM8.97937 5.62713C10.5244 5.61963 11.7806 6.86838 11.7881 8.41338C11.7956 9.95838 10.5469 11.2146 9.00187 11.2221C7.45687 11.2296 6.20062 9.98088 6.19312 8.43588C6.18562 6.89088 7.43437 5.63463 8.97937 5.62713ZM12.4819 3.93588C12.4819 3.38088 12.9319 2.93088 13.4869 2.93088C14.0419 2.93088 14.4919 3.38088 14.4919 3.93588C14.4919 4.49088 14.0419 4.94088 13.4869 4.94088C12.9319 4.94088 12.4819 4.49088 12.4819 3.93588ZM17.3456 4.95588C17.2819 3.60963 16.9744 2.41713 15.9881 1.43463C15.0056 0.452129 13.8131 0.144629 12.4669 0.0771289C11.0794 -0.00162109 6.92062 -0.00162109 5.53312 0.0771289C4.19062 0.140879 2.99812 0.448379 2.01187 1.43088C1.02562 2.41338 0.721869 3.60588 0.654369 4.95213C0.575619 6.33963 0.575619 10.4984 0.654369 11.8859C0.718119 13.2321 1.02562 14.4246 2.01187 15.4071C2.99812 16.3896 4.18687 16.6971 5.53312 16.7646C6.92062 16.8434 11.0794 16.8434 12.4669 16.7646C13.8131 16.7009 15.0056 16.3934 15.9881 15.4071C16.9706 14.4246 17.2781 13.2321 17.3456 11.8859C17.4244 10.4984 17.4244 6.34338 17.3456 4.95588ZM15.5531 13.3746C15.2606 14.1096 14.6944 14.6759 13.9556 14.9721C12.8494 15.4109 10.2244 15.3096 9.00187 15.3096C7.77937 15.3096 5.15062 15.4071 4.04812 14.9721C3.31312 14.6796 2.74687 14.1134 2.45062 13.3746C2.01187 12.2684 2.11312 9.64338 2.11312 8.42088C2.11312 7.19838 2.01562 4.56963 2.45062 3.46713C2.74312 2.73213 3.30937 2.16588 4.04812 1.86963C5.15437 1.43088 7.77937 1.53213 9.00187 1.53213C10.2244 1.53213 12.8531 1.43463 13.9556 1.86963C14.6906 2.16213 15.2569 2.72838 15.5531 3.46713C15.9919 4.57338 15.8906 7.19838 15.8906 8.42088C15.8906 9.64338 15.9919 12.2721 15.5531 13.3746Z" fill="#F1F2EE"/>
</svg>
