<svg width="18" height="17" viewBox="0 0 18 17" fill="none" xmlns="http://www.w3.org/2000/svg">
<path d="M4.36126 16.821H0.877506V5.60475H4.36126V16.821ZM2.61751 4.07475C1.50376 4.07475 0.600006 3.15225 0.600006 2.0385C0.600006 1.50225 0.813756 0.992246 1.19251 0.613496C1.57126 0.234746 2.08501 0.0209961 2.61751 0.0209961C3.15001 0.0209961 3.66376 0.234746 4.04251 0.613496C4.42126 0.992246 4.63501 1.506 4.63501 2.0385C4.63501 3.15225 3.73126 4.07475 2.61751 4.07475ZM17.3963 16.821H13.92V11.361C13.92 10.0597 13.8938 8.391 12.1088 8.391C10.2975 8.391 10.02 9.80475 10.02 11.2672V16.821H6.54001V5.60475H9.88126V7.13475H9.93001C10.395 6.2535 11.5313 5.3235 13.2263 5.3235C16.7513 5.3235 17.4 7.64475 17.4 10.6597V16.821H17.3963Z" fill="#F1F2EE"/>
</svg>
