<svg width="160" height="75" viewBox="0 0 160 75" fill="none" xmlns="http://www.w3.org/2000/svg">
<path fill-rule="evenodd" clip-rule="evenodd" d="M32.7964 1.13231C32.8349 1.24868 33.2749 1.39464 33.7743 1.45688C34.4495 1.54111 34.7757 1.67929 35.0467 1.99641C35.3707 2.3751 36.4107 4.92139 39.8235 13.6904C43.765 23.8177 45.8086 28.8792 45.9528 28.8717C46.0453 28.867 46.5297 27.6944 47.0292 26.2661C48.4275 22.2681 55.2252 3.09172 55.4213 2.5921C55.673 1.95058 56.4137 1.4283 57.072 1.4283C57.4627 1.4283 57.6377 1.34982 57.6377 1.1746C57.6377 0.95963 57.2268 0.920898 54.9477 0.920898C52.6685 0.920898 52.2576 0.95963 52.2576 1.1746C52.2576 1.36876 52.4703 1.4283 53.1637 1.4283C53.8073 1.4283 54.1849 1.52234 54.4666 1.75303L54.8636 2.07759L54.0794 4.3323C53.6482 5.57222 52.2395 9.55512 50.9487 13.183C49.6582 16.8109 48.3169 20.5991 47.9678 21.6011C47.619 22.6032 47.3051 23.3946 47.2704 23.3597C47.2055 23.2944 44.8775 17.3039 42.428 10.8997C41.6632 8.89973 40.6077 6.24046 40.0824 4.99023C39.5476 3.71717 39.1495 2.52817 39.1776 2.288C39.242 1.7373 39.8397 1.43405 40.8669 1.43084C41.4636 1.42898 41.6655 1.36419 41.6655 1.1746C41.6655 0.955401 41.0569 0.920898 37.1962 0.920898C33.6954 0.920898 32.7418 0.966733 32.7964 1.13231ZM64.8672 1.15261C64.8672 1.30212 65.1382 1.41511 65.6307 1.47092C66.0505 1.51845 66.5423 1.69231 66.7235 1.85738C67.045 2.14998 67.0529 2.45865 67.0529 14.7064V27.2555L67.4312 27.8155C68.2748 29.0644 70.2332 29.4432 71.8284 28.6664C72.7474 28.2189 73.3029 27.5329 72.9327 27.3027C72.7783 27.2066 72.5776 27.2951 72.3235 27.5708C71.8716 28.0614 70.9171 28.1328 70.5621 27.7025C70.3717 27.4718 70.3233 25.1038 70.2853 14.1719L70.2394 0.920898H67.5532C65.3911 0.920898 64.8672 0.966056 64.8672 1.15261ZM58.5436 4.80757C57.2951 5.31513 57.0841 7.5098 58.2125 8.25364C59.2257 8.92138 60.5603 8.65026 61.164 7.65407C61.5729 6.97956 61.5924 6.48553 61.2395 5.73745C60.8187 4.84562 59.5374 4.40368 58.5436 4.80757ZM79.8693 11.3212C78.069 11.8288 76.7095 12.8409 76.0562 14.1599C75.3219 15.642 75.5516 17.3449 76.5474 17.8012C77.2093 18.1046 77.6159 18.0479 78.0729 17.5881C78.6628 16.9948 78.6258 16.0879 77.9765 15.2248C77.7016 14.8593 77.4768 14.3514 77.4768 14.0962C77.4768 13.4707 78.1436 12.7137 79.1151 12.2364C80.2545 11.6765 82.5503 11.6811 83.8301 12.2458C85.3906 12.9346 86.3876 14.4334 86.3876 16.0907C86.3876 17.2062 85.6906 17.6451 81.3438 19.2662C77.2006 20.8116 75.7054 21.7141 74.847 23.1875C74.3101 24.1091 74.2286 25.5628 74.6667 26.3997C75.3793 27.7607 76.86 28.6683 78.9263 29.0103C80.2849 29.235 81.9184 29.0344 83.1387 28.4929C84.1613 28.0391 85.2997 26.9049 85.8553 25.7861L86.3409 24.8085L86.4332 26.945C86.6085 31.0042 87.8725 33.2839 90.6811 34.606C96.1828 37.1959 102.367 32.8039 101.775 26.7273C101.613 25.0581 101.132 23.9099 100.136 22.8144C99.1035 21.6772 98.2418 21.2078 96.976 21.0923C96.1022 21.0127 95.9792 21.0458 95.4923 21.4916C95.2002 21.759 94.9149 22.2221 94.8581 22.5208C94.7717 22.9746 94.8386 23.1481 95.2658 23.5779C95.869 24.1847 96.3892 24.2294 97.316 23.7538C99.2667 22.7527 100.989 24.1935 101.148 26.9602C101.324 30.0205 99.8051 32.7153 97.2176 33.9334C96.2061 34.4095 96.0096 34.4445 94.7419 34.3741C92.5993 34.2552 91.1788 33.3563 90.2547 31.5344C89.5084 30.0628 89.4146 29.2078 89.4012 23.7606C89.3941 20.9196 89.3346 17.7093 89.2687 16.6265C89.1606 14.8473 89.1007 14.5795 88.6474 13.8418C88.0329 12.8419 87.0482 12.0647 85.7625 11.5649C84.4977 11.0733 81.2286 10.9381 79.8693 11.3212ZM56.1246 11.7234C56.1246 11.9739 56.2856 12.0579 56.8985 12.1275C58.2969 12.2859 58.2203 11.8469 58.2716 19.9967C58.3223 28.0636 58.3097 27.9726 59.4821 28.6355C60.1763 29.028 61.9517 29.1391 62.736 28.8391C63.2969 28.6245 64.3628 27.6638 64.3628 27.3726C64.3628 27.0005 64.035 27.094 63.4124 27.6438C62.7377 28.2399 62.1859 28.2899 61.7409 27.7954C61.4369 27.4575 61.4182 27.0324 61.3739 19.4233L61.3269 11.4071H58.7258C56.2969 11.4071 56.1246 11.4281 56.1246 11.7234ZM86.2175 22.9081C85.7363 25.7578 83.9726 27.7169 81.561 28.0807C78.5986 28.5277 76.4148 25.6249 77.7243 22.9812C78.2617 21.8964 79.1396 21.2241 81.4278 20.1448C82.445 19.665 83.9582 18.93 84.7904 18.511L86.3036 17.7496L86.3533 19.7792C86.3806 20.8955 86.3195 22.3035 86.2175 22.9081ZM10.7488 27.9018C8.61861 28.5003 6.71035 30.0222 5.83138 31.8238C5.50151 32.5 5.43628 32.8978 5.43527 34.24C5.43409 35.7045 5.47781 35.9266 5.93024 36.7481C6.95195 38.6036 9.04868 40.1566 13.686 42.4927C16.8177 44.0702 18.3658 45.1014 19.4071 46.3031C22.3749 49.729 21.1902 55.2943 17.0613 57.3227C15.4828 58.0984 13.9545 58.3236 11.0662 58.2066C8.4456 58.1006 7.31276 57.8398 5.41577 56.9058C3.19597 55.8129 1.33361 53.5423 0.820488 51.303C0.530803 50.039 0.603938 48.0553 0.977519 47.0513C1.30856 46.161 2.18754 45.1357 2.96294 44.7355C3.52937 44.4431 4.61211 44.4752 5.10355 44.7991C5.33876 44.9542 5.75387 45.445 6.0259 45.8899C6.76247 47.0941 7.6406 47.3894 8.64769 46.7716C9.61577 46.1777 9.45555 44.7731 8.34069 44.0798C7.5325 43.5775 5.62189 43.1575 4.7757 43.2966C3.56131 43.496 2.5396 44.0507 1.65608 44.9904C0.573339 46.142 0.129817 47.1712 0.020702 48.7854C-0.152302 51.3466 0.758952 53.6353 2.75716 55.6578C4.23113 57.1495 5.81188 57.9664 8.17206 58.4559C10.4299 58.9242 14.8817 58.8263 16.7799 58.2665C19.7164 57.4005 21.9307 55.6632 23.0664 53.3342C24.0746 51.2664 24.2446 49.5849 23.6728 47.3356C23.2355 45.6159 22.5317 44.4598 21.0698 43.0596C19.4911 41.5477 18.2937 40.7814 14.5128 38.8633C10.1931 36.6718 9.19327 35.9932 8.6413 34.879C8.07639 33.7387 8.0421 32.1544 8.55909 31.0803C9.7834 28.5362 14.088 27.5476 17.3668 29.0578C18.9141 29.7703 19.1256 30.5243 18.1315 31.7829C17.3899 32.7214 17.4559 33.5494 18.3078 33.9926C19.7378 34.7364 21.317 33.6086 21.102 31.9968C20.893 30.4293 19.2974 28.8822 17.1188 28.1352C15.6852 27.6433 12.1315 27.5133 10.7488 27.9018ZM137.135 29.6312C136.72 30.0839 134.304 34.6008 134.304 34.9238C134.304 35.2822 134.686 35.0162 136.375 33.4796C138.276 31.7504 138.949 30.7461 138.747 29.9388C138.535 29.0893 137.766 28.9426 137.135 29.6312ZM111.102 33.9863V37.4535H109.757C108.674 37.4535 108.412 37.5029 108.412 37.7072C108.412 37.9115 108.674 37.9609 109.757 37.9609H111.102L111.106 45.2759C111.11 52.007 111.134 52.6455 111.419 53.2744C112.024 54.6159 113.168 55.1986 114.764 54.9785C115.669 54.8537 116.973 54.2611 117.105 53.915C117.259 53.5125 117.002 53.4396 116.493 53.7415C116.228 53.8993 115.743 54.0285 115.415 54.0285C114.274 54.0285 114.297 54.1983 114.297 45.6187V37.9609H115.81C117.043 37.9609 117.323 37.9139 117.323 37.7072C117.323 37.5005 117.043 37.4535 115.81 37.4535H114.297V33.9863V30.5191H112.7H111.102V33.9863ZM102.687 31.2936C101.386 31.8378 101.085 33.8498 102.177 34.7017C102.651 35.0713 103.505 35.2364 104.096 35.0723C104.934 34.8394 105.421 34.2201 105.511 33.2731C105.601 32.3205 105.184 31.6437 104.27 31.2597C103.592 30.9744 103.443 30.9776 102.687 31.2936ZM34.4142 37.1208C30.8401 37.6732 27.9782 40.1524 27.0991 43.4577C26.7916 44.6141 26.8076 47.6265 27.1277 48.8629C27.7356 51.2111 29.2091 52.996 31.4593 54.1099C34.9184 55.822 38.9958 55.5292 41.8337 53.3648C43.0629 52.4273 44.4361 50.7627 44.292 50.3852C44.1337 49.9695 43.7283 50.1094 43.3618 50.7061C42.7812 51.651 41.3859 52.8356 40.1899 53.399C38.1685 54.3512 35.4211 54.2332 33.5197 53.1122C32.594 52.5665 31.4598 51.3104 31.0489 50.3756C30.6291 49.4212 30.2395 47.5852 30.2357 46.5444L30.2328 45.741H37.2942H44.3556V44.8463C44.3556 42.1882 42.7022 39.2737 40.5149 38.0761C38.9985 37.2458 36.3197 36.8264 34.4142 37.1208ZM68.2466 37.5501C64.251 38.9192 61.837 42.7117 62.2537 46.9654C62.4904 49.3821 63.2513 51.0875 64.7628 52.5885C66.3293 54.144 68.3406 55.0051 70.7821 55.1653C72.6033 55.2847 73.9966 55.0261 75.5434 54.2815C76.954 53.6025 77.8837 52.8279 78.9301 51.4599C79.5455 50.6555 79.6601 50.4099 79.4757 50.2924C79.1648 50.0943 78.8219 50.0991 78.8219 50.3013C78.8219 50.6012 76.7569 52.6893 76.0617 53.0922C73.6623 54.4832 70.5575 54.3563 68.4265 52.7802C66.7039 51.5063 65.8799 49.6774 65.6547 46.629L65.5892 45.741H72.6258H79.6625V44.9343C79.6625 43.8865 79.0929 41.8341 78.5374 40.8805C77.5955 39.2638 75.7238 37.843 73.8873 37.3512C73.411 37.2237 72.227 37.1203 71.2561 37.1215C69.8146 37.1236 69.2626 37.202 68.2466 37.5501ZM90.3386 37.2726C88.7243 37.6655 86.97 39.198 86.0833 40.9901L85.547 42.0741V39.7639V37.4535H82.941C80.7367 37.4535 80.335 37.4926 80.335 37.7072C80.335 37.8892 80.5198 37.9609 80.9889 37.9609C81.3702 37.9609 81.7999 38.089 82.0198 38.2681L82.3969 38.5752L82.4623 45.6363C82.5054 50.2726 82.4667 52.9253 82.35 53.3613C82.1669 54.0454 82.0213 54.1347 80.925 54.2359C80.6005 54.2658 80.4019 54.3884 80.3654 54.5816C80.3127 54.8615 80.5453 54.8779 83.9789 54.8353C87.1086 54.7964 87.6486 54.7522 87.6486 54.5359C87.6486 54.358 87.4036 54.254 86.8291 54.1875C86.3017 54.1266 85.9271 53.9795 85.7783 53.7747C85.4347 53.3021 85.4527 44.8959 85.8005 43.4122C86.4384 40.6904 88.2611 38.6441 90.2976 38.3631C91.7852 38.1581 93.0349 39.1538 93.6484 41.0334C93.7562 41.3632 93.8789 43.9158 93.9441 47.1837C94.0541 52.6917 94.0613 52.7808 94.4669 53.5198C94.693 53.9319 95.1429 54.4497 95.4665 54.6704C95.9824 55.0223 96.212 55.0648 97.3291 55.0152C98.4169 54.967 98.6934 54.8894 99.2205 54.485C99.5601 54.2245 99.8379 53.901 99.8379 53.7662C99.8379 53.4494 99.8009 53.4547 99.0968 53.8726C98.4207 54.2739 97.9271 54.1953 97.6117 53.6365C97.4629 53.373 97.3738 51.5746 97.3002 47.3478C97.187 40.8622 97.129 40.4457 96.153 39.1109C95.4729 38.1806 94.4901 37.5247 93.434 37.2969C92.4998 37.0955 91.1119 37.0845 90.3386 37.2726ZM125.878 37.3701C123.837 37.7791 122.182 38.8986 121.458 40.3602C120.513 42.2679 121.153 44.2188 122.724 44.2188C123.196 44.2188 124.048 43.3187 124.048 42.8196C124.048 42.594 123.823 42.0744 123.547 41.6649C122.516 40.1336 123.147 38.7907 125.177 38.1969C126.513 37.8062 128.739 37.9281 129.813 38.4509C131.292 39.1711 132.005 40.139 132.259 41.77C132.391 42.6126 132.37 42.7819 132.102 43.0513C131.6 43.5565 130.213 44.1921 127.169 45.313C123.725 46.5806 122.085 47.3882 121.101 48.3007C119.611 49.6821 119.255 51.4322 120.168 52.8813C121.014 54.2222 122.736 55.0119 125.141 55.1614C128.257 55.355 130.441 54.257 131.772 51.8286L132.281 50.8996L132.287 54.1977C132.29 56.0116 132.365 58.1807 132.455 59.0179C132.544 59.8551 132.666 61.0149 132.727 61.595L132.837 62.6499L130.334 63.8504C125.133 66.3451 122.146 67.3968 119.002 67.8407C114.474 68.48 111.379 67.4235 109.79 64.6957C109.436 64.0875 109.342 63.7063 109.34 62.8714C109.337 61.9093 109.384 61.7684 109.872 61.2775C110.366 60.7801 110.499 60.7368 111.623 60.7084C112.719 60.6807 112.879 60.632 113.232 60.2188C113.779 59.5788 113.743 58.8578 113.133 58.2438C111.831 56.934 109.169 58.3575 108.483 60.7299C107.528 64.0363 110.103 67.4465 114.213 68.3184C118.115 69.1461 123.043 67.9608 130.373 64.4315L132.916 63.2075L133.539 65.1133C134.301 67.4453 135.062 68.7892 136.486 70.3173C138.389 72.362 140.721 73.7649 143.467 74.5194C145.417 75.0553 149.591 75.0546 151.537 74.5183C155.929 73.3078 159.133 70.3096 159.877 66.7135C159.983 66.2018 160.029 65.1935 159.981 64.4726C159.756 61.1754 157.412 58.6223 153.471 57.3844C152.373 57.0396 151.884 56.99 149.688 57.001C147.536 57.0119 146.932 57.0771 145.569 57.4465C143.544 57.9952 141.344 58.8255 138.23 60.2161C136.879 60.8194 135.731 61.2706 135.679 61.2187C135.628 61.1668 135.543 56.6546 135.491 51.1917L135.397 41.259L135.009 40.4665C133.744 37.8833 129.871 36.5698 125.878 37.3701ZM55.1148 37.4315C53.4967 37.9685 52.1418 39.4172 51.2181 41.5973L50.9314 42.2738L50.922 39.8594L50.9126 37.4449L48.2784 37.4916C46.3543 37.5256 45.6253 37.5951 45.5743 37.7495C45.5273 37.8921 45.6983 37.9609 46.0991 37.9609C46.8891 37.9609 47.4996 38.2583 47.6176 38.7004C47.6704 38.8983 47.7146 42.2994 47.7158 46.2584C47.7176 52.1035 47.6746 53.5162 47.4868 53.7747C47.338 53.9795 46.9634 54.1266 46.436 54.1875C45.8615 54.254 45.6166 54.358 45.6166 54.5359C45.6166 54.7527 46.1737 54.7962 49.4415 54.8351C53.1811 54.8796 53.2664 54.873 53.2664 54.5391C53.2664 54.2442 53.1568 54.1977 52.4632 54.1977C52.0083 54.1977 51.4978 54.0835 51.2863 53.9343C50.9159 53.6735 50.9126 53.6306 50.9126 49.1411C50.9126 45.1836 50.9546 44.4461 51.2446 43.3048C52.0628 40.0869 54.1396 37.8063 56.2618 37.7955C57.9635 37.7867 58.4067 38.9159 57.1505 40.0594C56.6669 40.4996 56.6525 41.8361 57.1264 42.2676C57.6757 42.7677 58.798 42.7954 59.4846 42.3259C60.3027 41.7668 60.5208 41.2671 60.45 40.1152C60.3774 38.9353 60.0075 38.3734 58.9387 37.8202C58.1086 37.3904 55.911 37.1672 55.1148 37.4315ZM100.679 37.6849C100.679 37.8282 100.942 37.952 101.371 38.0098C101.753 38.0612 102.15 38.1893 102.254 38.2941C102.387 38.4272 102.469 40.7183 102.528 45.8895L102.612 53.2943L103.065 53.8914C103.658 54.6729 104.471 55.0442 105.58 55.0396C107.024 55.0337 108.793 54.0021 108.263 53.4748C108.099 53.3109 108.023 53.3248 107.901 53.5413C107.817 53.6918 107.526 53.9074 107.255 54.0206C106.647 54.2736 106.119 54.0407 105.882 53.4153C105.789 53.1693 105.722 49.7322 105.722 45.2226V37.4535H103.2C101.179 37.4535 100.679 37.4994 100.679 37.6849ZM37.9534 38.1436C38.8891 38.5593 39.7316 39.3451 40.1796 40.2199C40.6109 41.0618 40.9865 42.8561 40.9902 44.092L40.993 45.0645H35.6129C30.8773 45.0645 30.2328 45.0332 30.2328 44.8037C30.2328 44.16 30.7962 41.8953 31.1654 41.0559C32.4602 38.1104 35.2168 36.9277 37.9534 38.1436ZM73.2086 38.1206C74.1721 38.5487 75.0314 39.3292 75.4532 40.1597C75.8687 40.9774 76.2999 42.997 76.2999 44.1253V45.0645H71.0039H65.7079V44.4235C65.7079 42.7853 66.7642 40.1662 67.8572 39.0946C68.2175 38.7415 68.9593 38.263 69.5059 38.0311C70.6999 37.5247 71.9347 37.5545 73.2086 38.1206ZM132.124 49.1005C131.72 51.3227 130.157 53.3637 128.411 53.9467C127.462 54.2641 125.692 54.3034 124.96 54.0234C123.108 53.3155 122.205 51.1494 123.023 49.3774C123.635 48.05 124.822 47.2534 128.84 45.4741C130.042 44.9419 131.29 44.3381 131.614 44.1324L132.203 43.7586L132.25 45.9528C132.276 47.1597 132.219 48.576 132.124 49.1005ZM151.167 57.9921C155.249 59.2742 157.853 63.0761 157.214 66.8231C156.68 69.9647 154.114 72.7243 150.613 73.9232C149.864 74.1795 149.207 74.238 147.166 74.2302C144.889 74.2214 144.511 74.1759 143.273 73.7626C139.38 72.4633 136.947 69.2303 136.071 64.1924C135.68 61.9448 135.687 61.9099 136.616 61.5084C137.055 61.3186 138.377 60.7407 139.552 60.2242C144.118 58.2191 146.626 57.5333 148.931 57.6601C149.717 57.7034 150.723 57.8528 151.167 57.9921Z" fill="#F1F2EE"/>
</svg>
