<svg width="606" height="7" viewBox="0 0 606 7" fill="none" xmlns="http://www.w3.org/2000/svg">
<path d="M595.847 4.567C596.421 4.60263 597.063 4.81016 597.916 4.70115C598.525 4.62289 599.134 4.49782 599.753 4.48769C600.282 4.47895 600.89 4.69836 601.35 4.65085C602.447 4.53764 602.323 5.09666 602.894 5.05613C603.592 5.00686 604.182 4.75916 604.873 4.6498C605.18 4.60124 605.62 4.68194 606 4.7036C605.868 4.86712 605.829 5.05963 605.574 5.18506C605.373 5.28359 604.913 5.32972 604.552 5.34649C602.811 5.42755 600.975 5.22384 599.334 5.62808C599.132 5.67805 598.673 5.66617 598.476 5.60887C596.916 5.15362 595.492 5.47261 594.157 5.75247C593.574 5.87476 593.147 6.0421 592.683 5.77936C592.046 5.41914 591.14 5.43766 590.259 5.48832C588.902 5.56658 587.552 5.67804 586.227 5.8157C585.954 5.844 585.803 6.04945 585.595 6.17313C585.436 5.38141 583.161 6.09418 582.653 5.54948C581.36 5.67246 580.01 5.74128 578.788 5.93309C577.431 6.14622 576.565 6.16159 575.181 5.7867C574.226 5.52815 574.114 5.52711 573.879 6.05049C573.758 6.32092 573.469 6.37472 572.914 6.34607C572.164 6.30764 571.41 6.09521 570.682 6.36879C570.516 6.29122 570.352 6.21366 570.357 6.02569C570.413 5.95336 570.296 5.9918 570.18 6.03023C570.273 6.06482 570.365 6.09905 570.458 6.13329C570.549 6.08578 570.651 6.04036 570.721 5.98831C570.732 5.97957 570.6 5.94218 570.357 6.02569C568.661 6.14972 567.138 6.16334 565.613 6.17697C565.206 6.18046 564.548 6.24755 564.432 6.17837C563.238 5.46003 562.288 5.87055 561.084 6.18885C560.679 6.29611 559.284 6.48445 559.065 5.86149C559.005 5.69273 558.322 5.71543 557.952 5.93764C557.287 6.33734 557.115 6.33315 556.406 6.00752C555.181 5.44535 554.518 5.37269 553.953 5.86532C553.222 6.50505 552.277 6.36914 551.222 6.15392C550.642 6.03547 550.315 6.06691 549.955 6.23776C549.505 6.45089 549.099 6.6696 548.437 6.30345C547.779 5.93868 546.635 6.0435 545.943 6.14971C545.078 6.28248 544.346 6.25383 543.688 6.12596C542.367 5.86916 541.008 5.92995 539.641 5.93868C538.015 5.94916 536.385 5.94464 534.764 5.98796C533.112 6.03199 531.489 5.98551 529.805 6.21751C528.532 6.3929 526.92 6.03547 525.406 6.06307C523.883 6.09102 522.354 6.12317 520.834 6.09732C519.766 6.0795 518.728 6.19898 517.589 6.02673C516.839 5.91318 515.767 6.33979 514.816 5.94359C514.681 5.88734 513.831 6.15565 513.305 6.15984C512.593 6.16578 511.603 5.92298 511.218 6.03618C510.537 6.23673 509.892 6.16194 509.238 6.21435C508.443 6.27794 507.881 6.14239 507.421 5.91459C507.161 5.78566 507.466 5.4852 506.652 5.52572C506.074 5.55437 505.234 5.51454 504.973 5.64521C504.115 6.07146 502.664 5.82444 501.703 6.16684C501.28 6.31742 500.249 6.23288 499.5 6.21576C498.938 6.20283 498.391 6.11059 497.828 6.08194C496.676 6.0236 495.695 6.41455 494.322 6.14797C493.357 5.96069 491.927 6.1099 490.714 6.15008C489.862 6.17838 488.978 6.05504 488.145 6.34678C487.768 6.47885 486.672 6.46905 486.184 6.34991C485.185 6.10499 484.367 6.11478 483.451 6.35341C483.347 6.38066 483.098 6.39185 483.037 6.3667C481.418 5.70286 478.996 6.25977 477.261 5.78949C476.573 5.60327 476.309 5.99249 475.514 5.93868C473.321 5.79054 471.124 5.53411 468.859 5.63508C467.616 5.69028 466.398 5.86287 465.159 5.88383C463.962 5.90375 462.878 6.02254 461.761 6.15775C460.954 6.25523 460.222 6.56689 459.165 6.21751C458.736 6.07565 457.617 6.20632 456.856 6.28039C456.543 6.31079 456.424 6.46837 455.969 6.31289C454.835 5.92577 453.408 6.03302 452.043 6.01031C449.681 5.97083 447.263 6.27131 444.963 5.8447C443.786 6.03093 442.686 6.04736 441.695 5.66513C441.637 5.64242 441.087 5.87929 440.794 5.8695C439.446 5.82513 437.985 6.10815 436.761 5.68155C435.632 6.05923 434.122 5.84121 432.878 6.05957C431.668 6.27165 430.533 6.32091 429.33 5.94322C428.049 5.54178 426.483 5.78007 425.048 5.86532C424.41 5.90306 423.81 6.03513 423.193 6.12457C421.232 6.40932 421.244 6.40408 419.4 5.73605C419.184 5.65779 418.47 5.62633 418.426 5.66022C416.905 6.82159 414.436 6.15845 412.392 6.08158C411.848 6.06097 411.143 5.94707 410.475 5.90934C410.179 5.89257 409.813 5.79301 409.677 5.69133C409.477 5.54284 409.912 5.24585 409.156 5.23223C408.499 5.22035 407.652 5.23362 407.198 5.38001C405.575 5.90584 404.041 5.90794 402.384 5.43627C402.095 5.35381 401.657 5.28079 401.329 5.30141C400.49 5.35486 399.681 5.47679 398.846 5.54562C398.101 5.60676 397.358 5.03272 396.555 5.53933C396.49 5.58056 395.926 5.56869 395.774 5.51069C395.24 5.3063 394.871 5.30385 394.262 5.50265C393.087 5.88663 391.931 5.88734 390.264 5.88804C388.935 5.88873 387.438 5.66057 386.219 6.10779C386.049 6.16998 385.591 6.18011 385.356 6.13888C382.94 5.71298 380.423 6.0498 377.964 5.97189C377.013 5.94184 376.113 6.03199 375.088 5.80873C374.402 5.65954 373.002 5.86845 372.091 6.04699C371.018 6.25732 370.388 5.51314 369.387 5.93275C367.212 5.97643 364.966 6.16825 362.884 6.01801C361.172 5.89433 359.525 5.83911 357.97 6.02044C357.316 6.09696 357.158 5.92401 356.856 5.94218C353.748 6.1312 350.711 5.5935 347.646 5.79265C346.054 5.89607 344.563 5.94463 342.948 5.8447C341.978 5.78461 340.739 5.65743 339.816 6.04874C339.706 6.09556 339.154 5.96244 338.798 5.95056C338.252 5.93169 337.581 5.86847 337.173 5.96246C336.396 6.14065 335.817 6.18325 335.04 5.96419C334.701 5.86845 334.087 5.92786 333.604 5.89921C332.652 5.84226 331.725 6.01032 330.688 5.77623C330.086 5.64067 328.92 5.94218 328.012 5.93834C326.359 5.93135 324.635 6.16858 323.062 5.76224C322.36 5.58056 321.898 6.0725 321.027 5.8723C320.498 5.75071 319.684 5.82059 318.999 5.79474C318.235 5.76609 317.401 5.931 316.717 5.64834C316.573 5.58895 316.033 5.57008 315.931 5.61655C314.917 6.08263 313.218 5.61934 312.199 6.0442C311.256 5.5865 309.591 6.16508 308.6 5.67489C308.505 5.62773 307.627 5.88278 307.098 5.89326C304.763 5.93868 302.423 5.95861 300.086 5.95546C299.664 5.95477 299.165 5.83352 298.84 5.71193C298.093 5.43347 297.973 5.52781 297.906 5.86846C297.895 5.92471 297.043 5.98725 296.575 5.99389C294.137 6.02708 291.698 6.06063 289.258 6.05748C288.142 6.05609 286.872 5.8192 285.95 5.96105C284.743 6.14623 283.603 6.06656 282.445 6.12071C281.642 6.15845 280.477 6.2755 280.077 6.12142C279.183 5.77657 278.727 6.26992 278.071 6.16825C277.984 6.15462 277.832 6.18535 277.774 6.16613C277.33 6.01695 276.828 5.71333 276.484 5.73919C275.891 5.78391 275.43 6.15251 274.862 6.17313C272.843 6.24685 270.802 6.22797 268.77 6.25173C267.972 6.26117 268.126 6.04246 268.058 5.85729C268.02 5.75456 268.244 5.49496 267.559 5.63926C267.299 5.69411 267.046 5.85764 267.053 5.96909C267.059 6.06692 267.809 6.17453 267.033 6.26118C265.805 6.39814 264.6 6.11094 263.328 6.20492C263.048 6.22554 262.568 5.9593 262.085 6.15705C261.694 6.31707 261.388 6.35236 260.807 6.24056C260.231 6.13015 259.493 6.10465 258.835 6.11478C258.321 6.12282 257.564 6.35901 257.358 6.29123C256.627 6.0498 256.145 6.0788 255.625 6.35411C255.202 6.16859 254.683 6.12246 254.049 6.13784C253.473 6.15181 252.806 6.16196 252.32 6.06623C250.954 5.79615 249.572 5.9883 248.206 5.98585C247.441 5.98446 245.527 5.94568 244.777 5.84541C244.61 5.82305 244.361 5.91842 244.141 5.9268C243.259 5.96035 242.202 6.11025 241.531 5.97538C240.602 5.78846 239.991 5.68609 239.162 5.9918C239.013 6.04701 238.494 5.94639 238.144 5.92612C237.798 5.90621 237.169 5.85799 237.141 5.88908C236.358 6.7332 235.046 6.21157 233.895 6.09173C233.351 6.03513 232.79 5.78915 232.267 6.1057C230.922 6.00717 229.551 6.29856 228.15 5.97468C227.633 5.85519 226.577 6.1008 225.757 6.1588C225.488 6.17767 225.19 6.12981 224.905 6.11269C225.085 5.99949 225.27 5.88734 225.443 5.77239C225.59 5.67386 226.252 5.58057 225.553 5.46247C225.11 5.38805 224.584 5.35382 224.103 5.3622C223.893 5.36605 223.68 5.51698 223.508 5.61166C223.313 5.71893 223.213 5.91702 222.985 5.93868C222.002 6.03337 220.932 6.18431 219.997 6.11199C218.998 6.03443 218.303 6.36738 217.355 6.24894C216.731 6.17103 216.057 6.30451 215.37 6.09348C214.929 5.95827 214.027 6.03688 213.333 6.04177C210.284 6.06413 207.235 6.10011 204.187 6.11758C203.578 6.12107 202.639 6.2762 202.719 5.78007C202.722 5.76749 201.825 5.68329 201.759 5.72697C200.989 6.23183 199.749 6.16613 198.543 6.17522C194.68 6.20457 190.819 6.25418 186.956 6.2699C186.011 6.27375 185.006 6.42714 184.097 6.08544C183.793 5.97119 182.699 5.98481 182.365 6.1057C181.225 6.51903 180.42 6.35167 179.587 5.98935L176.429 6.05957C174.761 6.30415 174.612 6.28843 172.865 6.05644C172.237 5.97293 171.243 5.85763 170.911 5.97293C169.961 6.30101 169.408 6.20108 168.68 5.89642C168.233 5.70984 167.853 5.49427 166.961 5.49077C165.941 5.48658 166.332 5.91634 165.966 5.92612C164.996 5.95163 163.929 6.44809 162.986 5.87859C162.885 5.81814 162.235 5.81919 161.992 5.88138C159.348 6.55605 156.643 6.16056 153.939 5.98342C153.075 5.92682 152.144 5.83562 151.32 5.90305C147.348 6.22728 147.342 6.26363 143.459 5.77973C142.624 5.67561 141.617 5.92577 140.94 5.57044C140.913 5.55612 140.597 5.58687 140.538 5.62495C140.016 5.96525 138.906 5.8978 138.306 6.08612C137.397 6.37087 136.948 5.82583 136.257 6.02498C136.228 5.69831 135.47 5.74198 135.17 5.81116C133.698 6.15111 132.088 6.01172 130.539 6.08265C128.19 6.19026 125.783 5.91774 123.456 6.35377C122.441 6.54419 121.319 6.00717 120.059 6.16404C119.389 6.24755 118.797 6.11234 118.162 5.99844C117.802 5.93345 117.145 6.17487 116.603 6.19234C115.288 6.23427 113.963 6.22589 112.642 6.23776C112.337 6.24056 112.027 6.23149 111.728 6.24826C110.965 6.29088 110.946 5.57916 109.661 5.99423C109.108 6.17277 107.893 6.06273 106.982 6.04735C105.327 6.0194 103.713 6.07914 102.003 5.91109C100.511 5.76469 98.719 5.80838 97.0152 6.04072C96.0383 6.17419 94.6934 5.90619 93.5177 5.81116C93.3405 5.79683 93.0985 5.69273 93.0346 5.71055C90.8847 6.308 88.6816 5.71333 86.5136 5.7619C86.3103 5.76644 86.0944 5.74897 85.9064 5.77098C85.2812 5.84366 84.6398 6.0145 84.0551 5.9869C83.4506 5.95825 82.9423 5.68888 82.3225 5.62354C81.8314 5.57183 81.2107 5.63962 80.6925 5.70705C79.2289 5.89817 78.3131 5.91773 76.4402 5.86183C75.2294 5.82584 73.997 5.90795 72.7844 5.8772C71.4368 5.84296 69.9894 6.10639 68.7318 5.69481C68.6185 5.65777 68.1318 5.72451 67.9618 5.79474C67.3806 6.03477 66.938 5.94603 66.4676 5.74898C66.0826 5.58791 65.7398 5.37442 65.1362 5.69306C64.9851 5.77272 64.2627 5.786 63.9866 5.71752C62.1289 5.25668 60.4377 5.50231 58.805 5.88279C58.3256 5.99459 58.2392 6.01381 58.1115 5.78986C57.8686 5.36185 57.0302 5.3098 56.055 5.32203C53.0064 5.36011 49.9568 5.39679 46.9073 5.39959C45.8602 5.40064 44.6934 5.60468 43.7651 5.21651C43.6697 5.17668 43.2766 5.17319 43.1966 5.21022C41.8553 5.82654 40.3809 5.33075 39.1395 5.20148C38.1788 5.10155 37.245 4.97542 36.3076 5.0432C34.8674 5.14697 33.5729 4.9377 32.2875 4.80424C31.3285 4.70466 30.742 5.18436 29.6616 4.89297C29.0526 4.72876 27.8931 4.87061 26.9818 4.87759C25.762 4.88668 24.5412 4.88913 23.3232 4.91359C22.4255 4.93176 21.552 4.92371 20.8215 4.69382C20.0659 4.45658 19.1996 4.46323 18.3108 4.48035C17.7018 4.49188 17.0883 4.48033 16.482 4.50025C13.9974 4.58131 11.4651 4.59214 9.13159 4.28713C8.15015 4.1589 7.61491 4.42096 6.85567 4.35108C6.11352 4.28295 5.50092 3.90351 4.54107 4.34304C4.12277 4.53451 1.93142 3.87276 1.88284 3.44511C1.81807 2.86967 1.26483 2.42839 0.246518 2.04302C-0.245548 1.85714 0.0746996 1.81906 0.546075 1.7953C1.20996 1.76211 1.87475 1.84595 2.51434 1.61745C3.19442 1.37428 4.0724 1.1912 4.94228 1.05913C5.72851 0.939993 6.66136 1.13216 7.47098 0.82295C8.01162 0.616112 8.49019 0.94943 8.91389 1.09268C9.64524 1.3397 10.1283 1.38092 10.2587 0.917281C10.2767 0.85509 10.8507 0.747828 10.8947 0.765298C11.797 1.12237 12.5895 0.669214 13.4675 0.719876C14.3599 0.771236 15.3314 0.649655 16.1959 0.72687C17.1027 0.807928 17.8484 0.973181 18.7822 0.701707C19.2473 0.566493 19.9543 0.692276 20.3294 0.920426C20.8089 1.21217 21.776 1.23487 22.1997 1.1084C23.8243 0.623095 25.4633 1.03433 26.8864 1.14508C28.0523 1.23593 29.3962 1.41761 30.2814 1.24746C31.2539 1.06088 31.8656 1.25269 32.5699 1.29078C33.8572 1.35996 35.0267 1.69153 36.3931 1.26283C36.8177 1.12936 37.9278 1.11329 38.5926 1.41971C38.8732 1.54933 39.6379 1.70689 39.7872 1.66042C40.344 1.48678 40.7515 1.23732 41.1842 1.00777C41.2994 0.946281 42.1504 0.483343 42.172 0.500463C42.3204 0.617508 42.4904 0.735254 42.5633 0.860684C42.7936 1.25864 43.3747 1.48049 44.447 1.39734C46.8551 1.21076 49.1472 1.59439 51.5284 1.60033C52.795 1.60347 53.9069 1.92212 55.348 1.57518C56.3312 1.33864 57.8452 1.448 59.1073 1.36904C59.8117 1.32502 60.6941 1.75896 61.2231 1.25514C61.7205 1.36241 62.2531 1.45115 62.7092 1.58007C64.4283 2.06572 66.2139 2.36304 68.3504 1.99339C68.5114 1.96544 68.7777 2.02938 68.9936 2.0514C72.1628 2.37563 72.2428 2.44411 74.7373 2.00668C75.7889 1.82255 75.5002 1.99374 75.681 2.19709C75.735 2.25788 76.3907 2.31378 76.4285 2.29002C77.1869 1.8152 77.956 2.15656 78.6945 2.27989C79.5644 2.42489 80.2436 2.62544 81.3384 2.32427C82.3954 2.03393 83.501 2.22784 84.0317 2.75262C84.1739 2.89308 84.5247 2.98253 84.8836 2.78338C85.2893 2.55872 85.6527 2.40393 86.4534 2.66108C86.7916 2.76974 87.8639 2.74493 88.1598 2.62124C88.8813 2.31972 89.0909 2.59854 89.5155 2.70441C89.8277 2.78232 90.3845 2.91055 90.5167 2.86827C92.0424 2.37948 93.8254 2.69007 95.4662 2.6132C97.0737 2.53808 98.898 2.38717 100.3 2.59785C102.521 2.93186 104.847 2.48498 106.941 2.90949C107.032 2.92801 107.263 2.89098 107.356 2.8529C108.849 2.23832 110.608 2.83961 112.213 2.70021C112.482 2.6768 112.849 2.84625 113.188 2.91333C113.606 2.99613 114.041 3.12366 114.473 3.12611C115.158 3.1296 115.98 2.93046 116.502 3.02305C117.4 3.18307 117.961 3.14918 118.639 2.90356C118.78 2.85255 119.307 2.98986 119.657 2.993C120.817 3.00348 122.065 3.09083 123.108 2.95387C123.787 2.86477 124.507 2.90809 125.07 2.79314C125.921 2.6195 127.287 3.55377 127.677 2.59889C127.822 2.61881 128.031 2.62125 128.102 2.66074C128.624 2.95178 129.096 2.89552 129.949 2.7963C131.171 2.6548 132.567 2.73515 133.889 2.73096C134.168 2.72991 134.521 2.739 134.712 2.80189C135.026 2.90565 134.672 3.21627 135.493 3.18832C136.882 3.14115 138.311 3.167 139.653 3.04542C141.517 2.87631 143.311 2.81096 145.265 2.9888C145.435 3.00417 145.791 2.96853 145.811 2.93429C145.912 2.76169 145.794 2.45843 146.532 2.77743C147.048 2.99999 147.372 2.9895 148.13 2.86932C148.927 2.74284 149.924 2.70894 150.96 2.77148C151.99 2.83367 153.231 2.6429 154.219 2.44305C154.872 2.31098 155.246 2.24182 155.719 2.47067C156.2 2.70266 156.786 2.78126 157.559 2.75785C158.455 2.73095 159.615 2.6251 160.208 2.7935C161.239 3.08629 161.729 2.41126 162.541 2.7058C163.577 2.43747 164.51 2.99231 165.747 2.71245C166.658 2.50631 167.985 2.69009 169.138 2.85989C169.932 2.97659 170.974 2.80923 171.851 2.87631C172.647 2.9371 173.32 2.98251 174.11 2.84974C174.89 2.71837 175.656 3.04575 176.294 3.02689C178.036 2.97483 179.879 3.26586 181.56 2.79314C182.035 2.65968 183.195 2.64152 183.612 2.77429C185.129 3.25715 186.414 2.78651 187.67 2.65479C188.488 2.56919 189.008 2.25649 189.176 2.82809C189.391 2.81691 189.61 2.81167 189.82 2.79385C191.262 2.67156 192.652 2.5933 194.15 2.79001C195.002 2.90181 196.22 2.91719 196.961 2.75717C198.144 2.50246 198.768 2.66631 199.547 2.95071C199.762 3.02967 200.224 3.00697 200.572 3.03072C200.55 2.89586 200.564 2.75821 200.489 2.62824C200.451 2.56255 200.193 2.51819 200.138 2.45145C200.081 2.38437 200.152 2.30155 200.166 2.22539C200.383 2.24321 200.607 2.25334 200.816 2.2806C202.33 2.47835 203.693 2.80223 205.503 2.58386C206.81 2.42594 208.332 2.49582 209.748 2.53006C210.574 2.54997 211.406 2.6754 212.191 2.79664C213.745 3.03667 214.532 3.08769 215.779 2.93361C216.315 2.86758 217.052 2.63872 217.308 2.7065C219.069 3.17328 221.285 2.60727 222.957 3.11353C223.473 3.27005 223.706 3.2816 224.33 3.11914C225.179 2.89797 226.243 2.80222 227.38 2.8169C228.935 2.83716 230.518 2.89027 232.003 2.56115C233.698 2.18591 235.553 2.46297 237.186 2.61565C238.199 2.71034 239.132 2.68413 240.091 2.70684C240.828 2.72396 241.603 3.04331 242.329 2.69637C244.276 2.79001 246.199 2.54088 248.231 2.83786C249.643 3.04435 251.442 2.8522 253.068 2.83473C253.259 2.83263 253.566 2.83227 253.62 2.79139C254.921 1.80891 256.857 2.77148 258.395 2.55102C259.373 3.00592 260.304 2.69742 261.244 2.52517C261.882 2.40813 262.473 2.06082 263.225 2.47205C263.299 2.51328 263.639 2.52656 263.78 2.49722C265.392 2.1625 266.672 2.41021 268.286 2.63766C269.92 2.86791 272.021 2.60902 273.913 2.54718C274.377 2.53181 274.968 2.35186 275.256 2.41475C276.788 2.75016 278.191 2.3316 279.654 2.35291C280.739 2.36863 281.799 2.38856 282.627 1.96021C282.98 1.77818 284.118 1.5895 284.329 2.14817C284.341 2.18241 284.401 2.23901 284.456 2.24181C285.968 2.32601 287.481 2.40462 288.994 2.48393C289.541 2.06012 290.378 2.74912 291.187 2.37912C291.606 2.1873 292.861 2.25892 293.743 2.23552C294.655 2.21106 295.585 2.17368 296.483 2.21805C297.508 2.26871 298.508 2.40148 299.516 2.5028C299.87 2.53844 300.443 2.66003 300.533 2.61811C301.943 1.96196 303.745 2.51538 305.301 2.3662C306.089 2.29073 306.35 2.4539 306.427 2.73271C306.439 2.77289 306.944 2.78616 307.209 2.82285C307.989 2.93151 306.97 2.09996 308.275 2.51189C309.158 2.7907 309.368 2.28128 310.086 2.31203C311.461 2.37108 312.851 2.37983 314.237 2.39415C314.52 2.39695 314.812 2.30052 315.092 2.30681C315.648 2.31868 316.427 2.29388 316.708 2.42036C317.451 2.75542 317.892 2.70265 318.503 2.3875C318.673 2.2998 319.338 2.23203 319.484 2.28269C320.338 2.57862 321.016 2.54124 321.844 2.2523C322.098 2.1639 323.176 2.23587 323.186 2.26802C323.364 2.8218 324.583 2.53704 325.181 2.68308C326.299 2.95526 327.237 2.81307 328.009 2.59331C328.71 2.39346 329.138 2.3012 329.732 2.5849C330.317 2.32671 331.113 2.37074 331.871 2.36236C332.582 2.35467 333.307 2.31623 334 2.35711C334.333 2.37668 334.588 2.55905 334.916 2.6457C335.088 2.69112 335.341 2.69007 335.559 2.70963C335.445 2.28687 336.201 2.2834 336.905 2.32393C337.551 2.36131 338.173 2.46088 338.803 2.53705C339.253 2.59156 339.479 2.69078 340.189 2.58281C341.948 2.31448 343.855 2.57163 345.684 2.71138C346.175 3.39688 347.048 2.96504 347.812 2.81865C348.234 2.73794 348.634 2.63908 349.057 2.55872C349.75 2.42665 350.84 2.39276 352.082 2.41232C352.995 2.42665 354.287 2.54334 354.746 2.36131C355.638 2.00773 356.087 2.45843 356.773 2.39449C357.252 2.34977 357.849 2.54298 358.394 2.54402C359.348 2.54577 360.364 2.54752 361.244 2.42733C362.186 2.29806 362.904 2.01192 363.874 2.45983C364.18 2.60134 365.21 2.5594 365.876 2.51922C367.239 2.43747 368.559 2.43257 369.953 2.46017C372.786 2.51643 375.564 2.60343 378.327 2.87281C379.374 2.97483 380.684 2.99196 381.641 2.83438C383.382 2.54754 384.936 2.49651 386.674 2.79873C387.26 2.90075 388.314 2.913 388.741 2.77429C389.718 2.45635 390.478 2.6754 391.333 2.77322C392.038 2.85393 394.542 2.82249 395.336 2.63662C396.2 2.43467 396.958 2.46961 397.834 2.57303C398.472 2.64849 399.176 2.71068 399.825 2.68413C400.765 2.6457 401.732 2.40778 402.598 2.46403C403.636 2.53112 404.625 2.68729 405.728 2.64886C406.739 2.61392 407.76 2.61425 408.775 2.61949C409.543 2.62334 410.308 2.5332 411.034 2.80502C411.345 2.92137 412.23 2.86478 412.798 2.80538C413.583 2.72328 413.757 2.01297 415.157 2.49862C415.792 2.71909 416.914 2.38226 417.667 2.72396C417.857 2.81026 418.584 2.732 419.056 2.7058C419.28 2.69322 419.543 2.5678 419.687 2.59051C420.385 2.69987 421.064 2.95632 421.719 2.94199C422.41 2.92697 423.033 2.65969 423.899 2.7107C425.06 2.77918 425.98 2.64257 426.817 2.27047C427.142 2.12617 427.912 1.90396 428.962 2.23658C430.002 2.56571 431.621 2.86233 433.243 2.52797C433.415 2.49233 433.682 2.49547 433.881 2.51538C435.031 2.63103 436.018 2.56394 437.217 2.42384C438.998 2.21525 441.15 2.16214 442.923 2.35291C444.841 2.55905 446.665 2.50874 448.509 2.4773C450.967 2.43572 453.513 2.66388 455.877 2.19745C456.114 2.15063 456.619 2.14399 456.749 2.20233C458.012 2.77323 459.629 2.01122 460.919 2.38262C462.085 1.88299 463.096 2.3054 463.866 2.54193C464.872 2.85044 465.712 2.87316 466.834 2.70091C467.976 2.52587 469.179 2.38751 470.388 2.31239C471.102 2.26802 471.905 2.80259 472.621 2.27676C473.456 2.34838 474.409 2.34348 475.104 2.5056C477.076 2.96609 478.985 2.58246 480.618 2.34278C481.897 2.15481 482.347 2.30575 482.65 2.60378C482.959 2.90774 483.145 2.97238 483.867 2.80572C484.262 2.71453 484.925 2.59015 485.186 2.65374C486.694 3.0227 488.301 2.79559 489.855 2.82564C490.723 2.84241 491.525 2.79455 492.383 2.60902C492.943 2.48813 494.179 2.86583 494.8 2.75542C496.044 2.53426 497.277 2.56569 498.534 2.50943C500.426 2.42453 500.484 2.38192 501.398 2.76834C502.225 3.11773 502.876 3.25993 504.097 2.96295C504.957 2.75367 506.287 3.10376 507.244 2.75542C507.316 2.72921 507.565 2.73725 507.661 2.76555C509.941 3.44581 512.378 3.20438 514.603 2.81447C515.779 2.60798 516.59 2.81516 517.379 2.92941C518.302 3.06322 519.233 3.14603 519.851 2.92591C521.332 2.39799 522.904 2.62266 524.387 2.78163C525.144 2.86268 525.701 3.14289 526.372 2.74983C526.428 2.71664 526.903 2.78058 527.171 2.81447C528.715 3.01012 530.223 3.14115 531.519 2.58876C531.622 2.54544 531.937 2.56814 532.151 2.57548C532.927 2.60203 533.709 2.61881 534.474 2.67087C535.217 2.72153 536.112 2.95283 536.646 2.8571C538.34 2.55313 539.683 2.79245 541.136 3.06497C541.473 3.12821 542.052 3.00138 542.515 2.95421C542.667 2.93884 542.816 2.86583 542.94 2.87456C543.496 2.91404 543.465 3.38466 544.494 3.14882C545.036 3.02444 545.829 3.05414 546.511 3.03492C547.22 3.01466 547.934 3.01884 548.645 3.01256C549.357 3.00627 550.069 2.9888 550.78 2.99613C551.499 3.00382 552.184 2.99998 552.647 2.73934C553.777 3.06113 555.123 2.8784 556.34 2.97937C558.988 3.19914 558.943 3.06812 561.701 2.96016C564.673 2.84381 567.831 2.50351 570.733 3.19774C570.979 3.25644 571.422 3.21277 571.759 3.18761C572.318 3.14603 572.872 3.08767 573.419 3.02443C574.553 2.89341 575.497 3.21765 576.536 3.218C577.38 3.21835 578.198 2.81131 579.096 3.20612C579.182 3.24421 579.564 3.24106 579.678 3.20088C580.628 2.86581 581.572 3.13973 582.542 3.16C583.536 3.18096 584.426 3.25504 585.366 3.37244C586.135 3.46852 586.984 3.58906 587.924 3.3906C588.451 3.2795 589.444 3.29207 589.946 3.4182C590.888 3.65473 591.503 3.62923 592.312 3.35286C592.56 3.26866 593.273 3.33645 593.706 3.40144C594.32 3.49333 594.848 3.66942 595.457 3.76725C595.889 3.83677 596.395 3.83607 596.868 3.86647C596.479 3.95382 596.025 4.0174 595.726 4.13864C595.578 4.19944 595.713 4.3654 595.847 4.567C595.646 4.55023 595.537 4.48942 595.437 4.49187C595.174 4.49816 594.914 4.53171 594.653 4.55407C594.691 4.60578 594.733 4.70255 594.765 4.7022C595.094 4.69765 595.42 4.67705 595.847 4.567ZM162.187 4.27107C162.876 4.30321 163.395 4.34514 163.909 4.33745C164.019 4.33571 164.247 4.1369 164.185 4.05654C163.929 3.72392 163.198 3.9276 162.68 3.90245C162.589 3.89825 162.439 4.07786 162.187 4.27107ZM353.193 5.25074C352.703 5.25528 352.491 5.23886 352.316 5.26332C352.1 5.29337 351.914 5.35731 351.715 5.40692C351.928 5.48554 352.119 5.57638 352.358 5.64067C352.798 5.75946 353.445 5.34333 353.811 5.71822C353.909 5.65743 354.058 5.60049 354.088 5.53481C354.118 5.46912 354.079 5.34823 353.983 5.33286C353.648 5.27766 353.274 5.25808 353.193 5.25074ZM159.539 4.11663C159.608 4.11419 159.729 4.11907 159.74 4.10789C160.001 3.8448 160.256 3.58067 160.493 3.31443C160.506 3.29941 160.341 3.23652 160.294 3.24176C160.146 3.25818 160.012 3.29487 159.879 3.32772C159.302 3.47027 159.222 3.68654 159.325 3.92273C159.356 3.99016 159.465 4.052 159.539 4.11663ZM587.271 4.42165C587.337 4.45903 587.474 4.55511 587.502 4.55092C587.808 4.49991 588.155 4.45344 588.36 4.36155C588.439 4.32661 588.179 4.17812 588.073 4.08134C587.812 4.1921 587.55 4.3032 587.271 4.42165ZM125.703 5.17981C125.482 5.23606 125.238 5.27277 125.245 5.30107C125.269 5.40553 125.375 5.50685 125.452 5.60957C125.584 5.57848 125.825 5.54913 125.828 5.51664C125.837 5.41252 125.758 5.30769 125.703 5.17981ZM591.982 4.61451C592.225 4.67355 592.394 4.74868 592.535 4.74169C592.795 4.72806 593.038 4.66622 593.288 4.6243C593.132 4.58621 592.971 4.51423 592.82 4.51737C592.557 4.52261 592.302 4.57433 591.982 4.61451ZM289.93 5.44431C290.173 5.50335 290.342 5.57848 290.483 5.57149C290.743 5.55786 290.986 5.49602 291.236 5.45409C291.08 5.41601 290.919 5.34439 290.768 5.34753C290.506 5.35277 290.251 5.40448 289.93 5.44431ZM319.896 4.65155C320.041 4.73715 320.135 4.83182 320.208 4.82938C320.477 4.81995 320.738 4.77872 321.002 4.74937C320.922 4.69801 320.847 4.60437 320.763 4.60297C320.496 4.59913 320.226 4.62989 319.896 4.65155ZM201.454 3.50938C201.299 3.42274 201.194 3.3637 201.088 3.30501C200.992 3.40388 200.844 3.50136 200.821 3.60268C200.81 3.65788 201.011 3.72009 201.116 3.77878C201.235 3.6841 201.354 3.58974 201.454 3.50938ZM149.821 4.75007C149.742 4.78256 149.675 4.80947 149.61 4.83637C149.746 4.86153 149.879 4.89576 150.023 4.90694C150.074 4.91078 150.153 4.85803 150.219 4.83113C150.085 4.80353 149.951 4.77628 149.821 4.75007ZM157.595 5.7123C157.664 5.73815 157.75 5.7895 157.8 5.78461C157.943 5.77098 158.071 5.73429 158.205 5.70669C158.136 5.68083 158.05 5.62948 158 5.63438C157.858 5.64835 157.729 5.68469 157.595 5.7123ZM508.411 5.35591C508.327 5.32517 508.258 5.2993 508.189 5.27345C508.124 5.32691 508.037 5.37827 508.008 5.43418C507.998 5.45374 508.134 5.48449 508.203 5.51035C508.273 5.45864 508.343 5.40623 508.411 5.35591ZM344.503 3.19565C344.437 3.22255 344.305 3.25573 344.316 3.2753C344.352 3.33085 344.446 3.38047 344.517 3.43253C344.584 3.40563 344.715 3.37242 344.703 3.35286C344.668 3.29766 344.574 3.24771 344.503 3.19565ZM339.594 4.22215C339.515 4.25429 339.448 4.28155 339.381 4.30845C339.518 4.33361 339.651 4.36784 339.795 4.37902C339.846 4.38286 339.925 4.33011 339.991 4.30321C339.858 4.27595 339.723 4.2487 339.594 4.22215ZM337.125 3.77038C337.046 3.80287 336.98 3.82978 336.913 3.85668C337.05 3.88184 337.183 3.91609 337.327 3.92727C337.377 3.93111 337.456 3.87834 337.523 3.85144C337.39 3.82418 337.255 3.79693 337.125 3.77038ZM313.763 4.53974C313.833 4.5656 313.918 4.61695 313.969 4.61206C314.112 4.59843 314.239 4.56176 314.373 4.53416C314.304 4.5083 314.219 4.45693 314.168 4.46182C314.025 4.4758 313.897 4.51214 313.763 4.53974ZM311.857 4.75986C311.774 4.72876 311.704 4.70325 311.635 4.6774C311.57 4.7305 311.482 4.78222 311.453 4.83812C311.443 4.85769 311.579 4.88879 311.648 4.91429C311.72 4.86224 311.79 4.81017 311.857 4.75986ZM297.308 4.92547C297.378 4.95132 297.463 5.00267 297.514 4.99778C297.657 4.98416 297.784 4.94748 297.918 4.91988C297.849 4.89403 297.764 4.84266 297.713 4.84755C297.57 4.86117 297.442 4.89787 297.308 4.92547ZM296.192 5.20672C296.276 5.23782 296.345 5.26333 296.414 5.28919C296.479 5.23573 296.566 5.18436 296.596 5.12846C296.606 5.1089 296.47 5.07814 296.401 5.05229C296.33 5.10435 296.26 5.15641 296.192 5.20672ZM289.932 4.04396C290.001 4.06981 290.087 4.12081 290.137 4.11627C290.28 4.10265 290.408 4.06597 290.542 4.03837C290.473 4.01287 290.387 3.9615 290.337 3.96604C290.194 3.97966 290.065 4.01636 289.932 4.04396ZM277.585 3.17294C277.503 3.14219 277.432 3.11633 277.363 3.09048C277.298 3.14358 277.21 3.1953 277.182 3.2512C277.172 3.27077 277.308 3.3015 277.378 3.32735C277.448 3.2753 277.518 3.22325 277.585 3.17294ZM191.418 3.42658C191.292 3.45523 191.161 3.48494 191.03 3.51429C191.1 3.54014 191.185 3.59149 191.235 3.5866C191.378 3.57298 191.506 3.5363 191.64 3.5087C191.571 3.4832 191.502 3.45733 191.418 3.42658ZM596.933 4.35422C597.188 4.3916 597.438 4.44891 597.7 4.45764C597.842 4.46253 598.002 4.38392 598.153 4.34304C597.909 4.29692 597.665 4.2508 597.459 4.21202C597.236 4.27246 597.085 4.31334 596.933 4.35422ZM136.254 6.0236C136.097 6.04701 135.921 6.06063 135.796 6.09941C135.759 6.11094 135.865 6.19235 135.906 6.24197C136.024 6.20458 136.142 6.16684 136.261 6.12946C136.257 6.09382 136.255 6.05854 136.254 6.0236Z" fill="#0D452E"/>
</svg>
