<svg width="160" height="75" viewBox="0 0 160 75" fill="none" xmlns="http://www.w3.org/2000/svg">
<path fill-rule="evenodd" clip-rule="evenodd" d="M32.7964 0.711416C32.8349 0.827779 33.2749 0.973741 33.7743 1.03598C34.4495 1.12021 34.7756 1.25839 35.0467 1.57552C35.3707 1.9542 36.4107 4.50049 39.8235 13.2695C43.765 23.3968 45.8086 28.4583 45.9528 28.4508C46.0453 28.4461 46.5297 27.2735 47.0292 25.8452C48.4275 21.8472 55.2252 2.67082 55.4213 2.1712C55.673 1.52968 56.4137 1.0074 57.072 1.0074C57.4627 1.0074 57.6377 0.92892 57.6377 0.753699C57.6377 0.538731 57.2268 0.5 54.9477 0.5C52.6685 0.5 52.2576 0.538731 52.2576 0.753699C52.2576 0.947863 52.4703 1.0074 53.1637 1.0074C53.8073 1.0074 54.1849 1.10144 54.4666 1.33213L54.8636 1.6567L54.0794 3.91141C53.6482 5.15132 52.2395 9.13422 50.9487 12.7621C49.6582 16.39 48.3169 20.1782 47.9678 21.1802C47.619 22.1823 47.3051 22.9737 47.2704 22.9388C47.2055 22.8735 44.8775 16.883 42.428 10.4788C41.6632 8.47883 40.6077 5.81956 40.0824 4.56933C39.5476 3.29627 39.1495 2.10727 39.1776 1.8671C39.242 1.3164 39.8397 1.01315 40.8669 1.00994C41.4636 1.00808 41.6655 0.943296 41.6655 0.753699C41.6655 0.534503 41.0569 0.5 37.1962 0.5C33.6954 0.5 32.7418 0.545835 32.7964 0.711416ZM64.8672 0.731711C64.8672 0.881224 65.1382 0.994208 65.6307 1.05002C66.0505 1.09755 66.5423 1.27141 66.7235 1.43648C67.045 1.72908 67.0529 2.03775 67.0529 14.2855V26.8346L67.4312 27.3946C68.2748 28.6435 70.2332 29.0223 71.8284 28.2455C72.7474 27.798 73.3029 27.112 72.9327 26.8818C72.7783 26.7857 72.5776 26.8742 72.3235 27.1499C71.8716 27.6405 70.9171 27.7119 70.5621 27.2816C70.3717 27.0509 70.3233 24.6829 70.2853 13.751L70.2394 0.5H67.5532C65.3911 0.5 64.8672 0.545158 64.8672 0.731711ZM58.5436 4.38667C57.2951 4.89423 57.0841 7.0889 58.2125 7.83274C59.2257 8.50048 60.5603 8.22936 61.164 7.23317C61.5729 6.55867 61.5924 6.06463 61.2395 5.31656C60.8187 4.42472 59.5374 3.98278 58.5436 4.38667ZM79.8693 10.9003C78.069 11.4079 76.7095 12.42 76.0561 13.739C75.3219 15.2211 75.5516 16.924 76.5474 17.3803C77.2093 17.6837 77.6159 17.627 78.0729 17.1672C78.6628 16.5739 78.6258 15.667 77.9765 14.8039C77.7016 14.4384 77.4768 13.9305 77.4768 13.6753C77.4768 13.0498 78.1436 12.2928 79.1151 11.8155C80.2545 11.2556 82.5503 11.2602 83.8301 11.8249C85.3906 12.5137 86.3876 14.0125 86.3876 15.6698C86.3876 16.7853 85.6906 17.2242 81.3438 18.8453C77.2006 20.3907 75.7054 21.2932 74.847 22.7666C74.3101 23.6882 74.2286 25.1419 74.6667 25.9788C75.3793 27.3398 76.86 28.2474 78.9263 28.5894C80.2849 28.8141 81.9184 28.6136 83.1387 28.072C84.1613 27.6182 85.2997 26.484 85.8553 25.3652L86.3409 24.3876L86.4332 26.5241C86.6085 30.5833 87.8725 32.863 90.6811 34.1851C96.1828 36.775 102.367 32.383 101.775 26.3064C101.613 24.6372 101.132 23.489 100.136 22.3935C99.1035 21.2563 98.2418 20.7869 96.976 20.6714C96.1022 20.5918 95.9792 20.6249 95.4923 21.0707C95.2002 21.3381 94.9149 21.8012 94.8581 22.0999C94.7717 22.5537 94.8386 22.7272 95.2658 23.157C95.8691 23.7638 96.3892 23.8085 97.316 23.3329C99.2667 22.3318 100.989 23.7726 101.148 26.5393C101.324 29.5996 99.8051 32.2944 97.2176 33.5125C96.2061 33.9886 96.0096 34.0236 94.7419 33.9532C92.5993 33.8343 91.1788 32.9354 90.2547 31.1135C89.5084 29.6419 89.4146 28.7869 89.4012 23.3397C89.3941 20.4987 89.3346 17.2884 89.2687 16.2056C89.1606 14.4264 89.1007 14.1586 88.6474 13.4209C88.0329 12.421 87.0482 11.6438 85.7625 11.144C84.4977 10.6524 81.2286 10.5172 79.8693 10.9003ZM56.1246 11.3025C56.1246 11.553 56.2856 11.637 56.8985 11.7066C58.2969 11.865 58.2203 11.426 58.2716 19.5758C58.3223 27.6427 58.3097 27.5517 59.4821 28.2146C60.1763 28.6071 61.9517 28.7182 62.736 28.4182C63.2969 28.2036 64.3628 27.2429 64.3628 26.9517C64.3628 26.5796 64.035 26.6731 63.4124 27.2229C62.7377 27.819 62.1859 27.869 61.7409 27.3745C61.4369 27.0366 61.4182 26.6115 61.3739 19.0024L61.3269 10.9862H58.7258C56.2969 10.9862 56.1246 11.0072 56.1246 11.3025ZM86.2175 22.4872C85.7363 25.3369 83.9726 27.296 81.561 27.6598C78.5986 28.1068 76.4148 25.204 77.7243 22.5603C78.2617 21.4755 79.1396 20.8032 81.4278 19.7239C82.445 19.2441 83.9582 18.5091 84.7904 18.0901L86.3036 17.3287L86.3533 19.3583C86.3806 20.4746 86.3195 21.8826 86.2175 22.4872ZM10.7488 27.4809C8.61861 28.0794 6.71035 29.6013 5.83138 31.4029C5.50151 32.0791 5.43628 32.4769 5.43527 33.8191C5.43409 35.2836 5.47781 35.5057 5.93024 36.3272C6.95195 38.1827 9.04868 39.7357 13.686 42.0718C16.8177 43.6493 18.3658 44.6805 19.4071 45.8822C22.3749 49.3081 21.1902 54.8734 17.0613 56.9018C15.4828 57.6775 13.9545 57.9027 11.0662 57.7857C8.4456 57.6797 7.31276 57.4189 5.41577 56.4849C3.19597 55.392 1.33361 53.1214 0.820488 50.8821C0.530803 49.6181 0.603938 47.6344 0.977519 46.6304C1.30856 45.7401 2.18754 44.7148 2.96294 44.3146C3.52937 44.0222 4.61211 44.0543 5.10355 44.3782C5.33876 44.5333 5.75387 45.0241 6.0259 45.469C6.76247 46.6732 7.64061 46.9685 8.64769 46.3507C9.61577 45.7568 9.45555 44.3522 8.34069 43.6589C7.5325 43.1566 5.62189 42.7366 4.7757 42.8757C3.56131 43.0751 2.5396 43.6298 1.65608 44.5695C0.573339 45.7211 0.129817 46.7503 0.020702 48.3645C-0.152302 50.9257 0.758952 53.2144 2.75716 55.2369C4.23113 56.7286 5.81188 57.5455 8.17206 58.035C10.4299 58.5033 14.8817 58.4054 16.7799 57.8456C19.7164 56.9796 21.9307 55.2423 23.0664 52.9133C24.0746 50.8455 24.2446 49.164 23.6728 46.9147C23.2355 45.195 22.5317 44.0389 21.0698 42.6387C19.4911 41.1268 18.2937 40.3605 14.5128 38.4424C10.1931 36.2509 9.19327 35.5723 8.6413 34.4581C8.07639 33.3178 8.0421 31.7335 8.55909 30.6594C9.7834 28.1153 14.088 27.1267 17.3668 28.6369C18.9141 29.3494 19.1256 30.1034 18.1315 31.362C17.3899 32.3005 17.4559 33.1285 18.3078 33.5717C19.7378 34.3155 21.317 33.1877 21.102 31.5759C20.893 30.0084 19.2974 28.4613 17.1188 27.7143C15.6852 27.2224 12.1315 27.0924 10.7488 27.4809ZM137.135 29.2103C136.72 29.663 134.304 34.1799 134.304 34.5029C134.304 34.8613 134.686 34.5953 136.375 33.0587C138.276 31.3295 138.949 30.3252 138.747 29.5179C138.535 28.6684 137.766 28.5217 137.135 29.2103ZM111.102 33.5654V37.0326H109.757C108.674 37.0326 108.412 37.082 108.412 37.2863C108.412 37.4906 108.674 37.54 109.757 37.54H111.102L111.106 44.855C111.11 51.5862 111.134 52.2246 111.419 52.8535C112.024 54.195 113.168 54.7777 114.764 54.5576C115.669 54.4328 116.973 53.8402 117.105 53.4941C117.259 53.0916 117.002 53.0187 116.493 53.3206C116.228 53.4784 115.743 53.6076 115.415 53.6076C114.274 53.6076 114.297 53.7774 114.297 45.1978V37.54H115.81C117.043 37.54 117.323 37.493 117.323 37.2863C117.323 37.0797 117.043 37.0326 115.81 37.0326H114.297V33.5654V30.0982H112.7H111.102V33.5654ZM102.687 30.8727C101.386 31.4169 101.085 33.4289 102.177 34.2808C102.651 34.6504 103.505 34.8155 104.096 34.6514C104.934 34.4185 105.421 33.7992 105.511 32.8522C105.601 31.8996 105.184 31.2228 104.27 30.8388C103.592 30.5535 103.443 30.5567 102.687 30.8727ZM34.4142 36.6999C30.8401 37.2523 27.9782 39.7315 27.0991 43.0368C26.7916 44.1932 26.8076 47.2056 27.1277 48.442C27.7356 50.7902 29.2091 52.5751 31.4593 53.689C34.9184 55.4011 38.9958 55.1083 41.8337 52.9439C43.0629 52.0064 44.4361 50.3418 44.292 49.9643C44.1337 49.5486 43.7283 49.6885 43.3618 50.2852C42.7812 51.2301 41.3859 52.4147 40.1899 52.9781C38.1685 53.9303 35.4211 53.8123 33.5197 52.6913C32.594 52.1456 31.4598 50.8895 31.0489 49.9547C30.6291 49.0003 30.2396 47.1643 30.2357 46.1235L30.2328 45.3201H37.2942H44.3556V44.4254C44.3556 41.7673 42.7022 38.8528 40.5149 37.6552C38.9985 36.8249 36.3197 36.4055 34.4142 36.6999ZM68.2466 37.1292C64.251 38.4983 61.837 42.2908 62.2537 46.5445C62.4904 48.9612 63.2513 50.6666 64.7628 52.1676C66.3293 53.7231 68.3406 54.5842 70.7821 54.7444C72.6033 54.8638 73.9966 54.6052 75.5434 53.8606C76.954 53.1816 77.8837 52.407 78.9301 51.039C79.5455 50.2346 79.6601 49.989 79.4757 49.8715C79.1648 49.6734 78.8219 49.6782 78.8219 49.8805C78.8219 50.1803 76.7569 52.2684 76.0617 52.6713C73.6623 54.0623 70.5575 53.9354 68.4265 52.3593C66.7039 51.0854 65.8799 49.2565 65.6547 46.2081L65.5892 45.3201H72.6258H79.6625V44.5134C79.6625 43.4656 79.0929 41.4132 78.5374 40.4596C77.5955 38.8429 75.7238 37.4221 73.8873 36.9303C73.411 36.8028 72.227 36.6994 71.2561 36.7006C69.8146 36.7027 69.2626 36.7811 68.2466 37.1292ZM90.3386 36.8517C88.7243 37.2446 86.97 38.7771 86.0833 40.5692L85.547 41.6532V39.343V37.0326H82.941C80.7367 37.0326 80.335 37.0717 80.335 37.2863C80.335 37.4683 80.5198 37.54 80.9889 37.54C81.3702 37.54 81.7999 37.6681 82.0198 37.8472L82.3969 38.1543L82.4623 45.2154C82.5054 49.8517 82.4667 52.5044 82.35 52.9404C82.1669 53.6245 82.0213 53.7138 80.925 53.815C80.6005 53.8449 80.4019 53.9675 80.3654 54.1607C80.3127 54.4406 80.5453 54.457 83.9789 54.4144C87.1086 54.3755 87.6486 54.3313 87.6486 54.115C87.6486 53.9371 87.4036 53.8331 86.8291 53.7666C86.3017 53.7057 85.9271 53.5586 85.7783 53.3538C85.4347 52.8812 85.4527 44.475 85.8005 42.9913C86.4384 40.2695 88.2611 38.2232 90.2976 37.9422C91.7852 37.7372 93.0349 38.7329 93.6484 40.6125C93.7562 40.9423 93.8789 43.4949 93.9441 46.7628C94.0541 52.2708 94.0613 52.3599 94.4669 53.0989C94.693 53.5111 95.1429 54.0288 95.4665 54.2495C95.9824 54.6014 96.212 54.6439 97.3291 54.5943C98.4169 54.5461 98.6934 54.4685 99.2205 54.0641C99.5601 53.8036 99.8379 53.4801 99.8379 53.3453C99.8379 53.0285 99.8009 53.0338 99.0968 53.4517C98.4207 53.853 97.9271 53.7744 97.6117 53.2156C97.4629 52.9521 97.3738 51.1537 97.3002 46.9269C97.187 40.4413 97.129 40.0248 96.153 38.69C95.4729 37.7597 94.4901 37.1038 93.434 36.876C92.4998 36.6746 91.1119 36.6636 90.3386 36.8517ZM125.878 36.9492C123.837 37.3582 122.182 38.4777 121.458 39.9393C120.513 41.847 121.153 43.7979 122.724 43.7979C123.196 43.7979 124.048 42.8978 124.048 42.3987C124.048 42.1731 123.823 41.6535 123.547 41.244C122.516 39.7127 123.147 38.3698 125.177 37.776C126.513 37.3853 128.739 37.5072 129.813 38.03C131.292 38.7502 132.005 39.7181 132.259 41.3491C132.391 42.1917 132.37 42.361 132.102 42.6304C131.6 43.1356 130.213 43.7712 127.169 44.8921C123.725 46.1597 122.085 46.9673 121.101 47.8798C119.611 49.2613 119.255 51.0113 120.168 52.4604C121.014 53.8013 122.736 54.591 125.141 54.7405C128.257 54.9341 130.441 53.8361 131.772 51.4077L132.281 50.4787L132.287 53.7768C132.29 55.5907 132.365 57.7598 132.455 58.597C132.544 59.4342 132.666 60.594 132.727 61.1741L132.837 62.229L130.334 63.4295C125.133 65.9242 122.146 66.9759 119.002 67.4198C114.474 68.0592 111.379 67.0026 109.79 64.2748C109.436 63.6666 109.342 63.2854 109.34 62.4506C109.337 61.4884 109.384 61.3475 109.872 60.8566C110.366 60.3592 110.499 60.3159 111.623 60.2875C112.719 60.2598 112.879 60.2111 113.232 59.7979C113.779 59.1579 113.743 58.4369 113.133 57.8229C111.831 56.5131 109.169 57.9366 108.483 60.309C107.528 63.6154 110.103 67.0256 114.213 67.8975C118.115 68.7252 123.043 67.5399 130.373 64.0106L132.916 62.7866L133.539 64.6924C134.301 67.0244 135.062 68.3683 136.486 69.8964C138.389 71.9411 140.721 73.344 143.467 74.0985C145.417 74.6344 149.591 74.6337 151.537 74.0974C155.929 72.8869 159.133 69.8887 159.877 66.2926C159.983 65.7809 160.029 64.7726 159.981 64.0517C159.756 60.7545 157.412 58.2014 153.471 56.9635C152.373 56.6187 151.884 56.5691 149.688 56.5801C147.536 56.591 146.932 56.6562 145.569 57.0256C143.544 57.5743 141.344 58.4046 138.23 59.7952C136.879 60.3985 135.731 60.8497 135.679 60.7978C135.628 60.7459 135.543 56.2337 135.491 50.7708L135.397 40.8381L135.009 40.0456C133.744 37.4624 129.871 36.1489 125.878 36.9492ZM55.1148 37.0106C53.4967 37.5476 52.1418 38.9963 51.2181 41.1764L50.9314 41.8529L50.922 39.4385L50.9126 37.024L48.2784 37.0707C46.3543 37.1047 45.6253 37.1742 45.5743 37.3286C45.5273 37.4712 45.6983 37.54 46.0991 37.54C46.8891 37.54 47.4996 37.8374 47.6176 38.2795C47.6704 38.4774 47.7146 41.8785 47.7158 45.8375C47.7176 51.6826 47.6746 53.0953 47.4868 53.3538C47.338 53.5586 46.9634 53.7057 46.436 53.7666C45.8615 53.8331 45.6166 53.9371 45.6166 54.115C45.6166 54.3318 46.1737 54.3753 49.4415 54.4142C53.1811 54.4587 53.2664 54.4521 53.2664 54.1182C53.2664 53.8233 53.1568 53.7768 52.4632 53.7768C52.0083 53.7768 51.4978 53.6626 51.2863 53.5134C50.9159 53.2526 50.9126 53.2097 50.9126 48.7202C50.9126 44.7627 50.9546 44.0253 51.2446 42.8839C52.0628 39.666 54.1396 37.3854 56.2618 37.3746C57.9635 37.3658 58.4067 38.495 57.1505 39.6385C56.6669 40.0787 56.6525 41.4152 57.1264 41.8467C57.6757 42.3468 58.798 42.3745 59.4846 41.905C60.3027 41.3459 60.5208 40.8462 60.45 39.6943C60.3774 38.5144 60.0075 37.9525 58.9387 37.3993C58.1086 36.9695 55.911 36.7463 55.1148 37.0106ZM100.679 37.264C100.679 37.4073 100.942 37.5311 101.371 37.5889C101.753 37.6403 102.15 37.7684 102.254 37.8732C102.387 38.0063 102.469 40.2974 102.528 45.4686L102.612 52.8734L103.065 53.4705C103.658 54.252 104.471 54.6233 105.58 54.6187C107.024 54.6128 108.793 53.5812 108.263 53.0539C108.099 52.89 108.023 52.9039 107.901 53.1204C107.817 53.2709 107.526 53.4865 107.255 53.5997C106.647 53.8527 106.119 53.6198 105.882 52.9944C105.789 52.7484 105.722 49.3113 105.722 44.8017V37.0326H103.2C101.179 37.0326 100.679 37.0785 100.679 37.264ZM37.9534 37.7227C38.8891 38.1384 39.7316 38.9242 40.1796 39.799C40.6109 40.6409 40.9865 42.4352 40.9902 43.6711L40.993 44.6436H35.6129C30.8773 44.6436 30.2328 44.6123 30.2328 44.3828C30.2328 43.7391 30.7962 41.4744 31.1654 40.635C32.4602 37.6895 35.2168 36.5068 37.9534 37.7227ZM73.2086 37.6997C74.1721 38.1278 75.0314 38.9083 75.4532 39.7388C75.8687 40.5565 76.2999 42.5761 76.2999 43.7044V44.6436H71.0039H65.7079V44.0026C65.7079 42.3644 66.7642 39.7454 67.8572 38.6737C68.2175 38.3206 68.9593 37.8421 69.5059 37.6102C70.6999 37.1038 71.9347 37.1336 73.2086 37.6997ZM132.124 48.6796C131.72 50.9018 130.157 52.9428 128.411 53.5258C127.461 53.8432 125.692 53.8825 124.96 53.6025C123.108 52.8946 122.205 50.7285 123.023 48.9565C123.635 47.6291 124.822 46.8325 128.84 45.0532C130.042 44.521 131.29 43.9172 131.614 43.7115L132.203 43.3377L132.25 45.5319C132.276 46.7388 132.219 48.1551 132.124 48.6796ZM151.167 57.5712C155.249 58.8533 157.853 62.6552 157.214 66.4022C156.68 69.5438 154.114 72.3034 150.613 73.5023C149.864 73.7586 149.207 73.8171 147.166 73.8093C144.889 73.8005 144.511 73.755 143.273 73.3417C139.38 72.0424 136.947 68.8094 136.071 63.7715C135.68 61.5239 135.687 61.489 136.616 61.0875C137.055 60.8977 138.377 60.3198 139.552 59.8033C144.118 57.7982 146.626 57.1124 148.931 57.2392C149.717 57.2825 150.723 57.4319 151.167 57.5712Z" fill="#0D452E"/>
</svg>
